<?xml version="1.0" encoding="utf-8"?>
<!-- Generator: Adobe Illustrator 19.2.0, SVG Export Plug-In . SVG Version: 6.00 Build 0)  -->
<svg version="1.1" id="Layer_1" xmlns="http://www.w3.org/2000/svg" xmlns:xlink="http://www.w3.org/1999/xlink" x="0px" y="0px"
	 viewBox="0 0 504.7 179.2" style="enable-background:new 0 0 504.7 179.2;" xml:space="preserve">
<style type="text/css">
	.st0{fill:url(#SVGID_1_);}
	.st1{enable-background:new    ;}
	.st2{fill:#3A94ED;}
</style>
<title>logo</title>
<g>
	
		<linearGradient id="SVGID_1_" gradientUnits="userSpaceOnUse" x1="418.44" y1="84.51" x2="504.66" y2="84.51" gradientTransform="matrix(1 0 0 -1 0 180.55)">
		<stop  offset="0" style="stop-color:#3A94ED"/>
		<stop  offset="1" style="stop-color:#52ACED;stop-opacity:0.9"/>
	</linearGradient>
	<circle class="st0" cx="461.5" cy="96" r="43.1"/>
	<g class="st1">
		<path class="st2" d="M70.5,24.2h20.8v112.7H70.5v-9.5c-6.1,7.9-14.8,11.8-26.1,11.8c-10.8,0-20.1-4-27.9-12.2
			C9,118.7,5.2,108.5,5.2,96.6c0-11.9,3.9-21.9,11.4-30.1c7.7-8.2,17.1-12.4,27.9-12.4c11.3,0,20,3.9,26.1,11.8V24.2z M48.3,119.3
			c6.4,0,11.8-2.1,15.9-6.3c4.2-4.3,6.3-9.8,6.3-16.4c0-6.6-2.1-12.1-6.3-16.3c-4.2-4.3-9.5-6.4-15.9-6.4c-6.4,0-11.8,2.1-16.1,6.4
			c-4.2,4.2-6.3,9.7-6.3,16.3c0,6.6,2.1,12.1,6.3,16.4C36.6,117.2,41.9,119.3,48.3,119.3z"/>
		<path class="st2" d="M121.9,105.1c2.7,10.1,10.3,15.1,22.7,15.1c7.9,0,14-2.7,18-8.1l16.7,9.7c-7.9,11.4-19.6,17.2-35.1,17.2
			c-13.4,0-24-4-32-12.1c-8.1-8.1-12.1-18.2-12.1-30.4c0-12.1,4-22.2,11.9-30.3c7.9-8.2,18.2-12.2,30.6-12.2
			c11.8,0,21.6,4,29.1,12.2c7.7,8.2,11.6,18.2,11.6,30.3c0,2.7-0.3,5.5-0.8,8.5H121.9z M162.6,89c-2.4-10.9-10.5-16.3-20-16.3
			c-11.1,0-18.7,6-21.1,16.3H162.6z"/>
		<path class="st2" d="M266.5,66.5c7.7,8.2,11.6,18.2,11.6,30.1c0,11.9-3.9,22.1-11.6,30.3c-7.6,8.2-16.9,12.2-27.7,12.2
			c-11.3,0-20-3.9-26.1-11.8v9.5h-20.8V24.2h20.8v41.7c6.1-7.9,14.8-11.8,26.1-11.8C249.6,54.1,258.9,58.3,266.5,66.5z M234.9,119.3
			c6.4,0,11.8-2.1,15.9-6.3c4.3-4.3,6.4-9.8,6.4-16.4c0-6.6-2.1-12.1-6.4-16.3c-4.2-4.3-9.5-6.4-15.9-6.4c-6.4,0-11.8,2.1-15.9,6.4
			c-4.2,4.2-6.3,9.7-6.3,16.3c0,6.6,2.1,12.1,6.3,16.4C223.2,117.2,228.5,119.3,234.9,119.3z"/>
	</g>
	<g class="st1">
		<path class="st2" d="M301.9,105.1c2.7,10.1,10.3,15.1,22.7,15.1c7.9,0,14-2.7,18-8.1l16.7,9.7c-7.9,11.4-19.6,17.2-35.1,17.2
			c-13.4,0-24-4-32-12.1c-8.1-8.1-12.1-18.2-12.1-30.4c0-12.1,4-22.2,11.9-30.3c7.9-8.2,18.2-12.2,30.6-12.2
			c11.8,0,21.6,4,29.1,12.2c7.7,8.2,11.6,18.2,11.6,30.3c0,2.7-0.3,5.5-0.8,8.5H301.9z M342.7,89c-2.4-10.9-10.5-16.3-20-16.3
			c-11.1,0-18.7,6-21.1,16.3H342.7z"/>
	</g>
	<g class="st1">
		<path class="st2" d="M414.8,76.3h-18.2v33.5c0,8.7,6.3,8.9,18.2,8.2v18.8c-28.5,3.2-39-5-39-27.1V76.3h-14v-20h14V40.1l20.8-6.3
			v22.5h18.2V76.3z"/>
	</g>
	<circle class="st2" cx="48.4" cy="97" r="6.6"/>
	<circle class="st2" cx="235.2" cy="97" r="11.4"/>
</g>
</svg>
